<?xml version="1.0" standalone="no"?>
<!DOCTYPE svg PUBLIC "-//W3C//DTD SVG 20010904//EN"
 "http://www.w3.org/TR/2001/REC-SVG-20010904/DTD/svg10.dtd">
<svg version="1.0" xmlns="http://www.w3.org/2000/svg"
 width="220.000000pt" height="200.000000pt" viewBox="0 0 220.000000 200.000000"
 preserveAspectRatio="xMidYMid meet">
<metadata>
Created by potrace 1.15, written by Peter Selinger 2001-2017
</metadata>
<g transform="translate(0.000000,200.000000) scale(0.100000,-0.100000)"
fill="#000000" stroke="none">
<path d="M815 1896 c-83 -20 -146 -56 -211 -121 -68 -67 -97 -116 -119 -202
-50 -190 26 -391 186 -495 l49 -31 -56 -23 c-170 -69 -313 -223 -375 -404 -23
-69 -38 -264 -25 -334 l7 -36 282 0 c155 0 288 4 295 9 8 4 12 19 10 32 l-3
24 -264 3 -264 2 5 103 c10 215 111 386 292 495 82 50 160 73 281 83 61 5 126
14 145 20 122 39 229 132 283 246 30 65 32 74 32 188 0 114 -2 123 -32 188
-94 199 -309 304 -518 253z m237 -86 c62 -23 138 -80 171 -127 56 -81 72 -132
72 -228 0 -77 -4 -98 -27 -148 -38 -80 -115 -158 -191 -193 -54 -26 -73 -29
-157 -29 -82 0 -103 4 -151 26 -239 112 -300 407 -124 597 109 118 262 156
407 102z"/>
<path d="M1400 979 c-128 -25 -248 -122 -309 -248 -34 -72 -36 -81 -36 -181 0
-85 4 -116 23 -166 91 -240 371 -350 610 -239 74 34 163 122 200 198 165 334
-122 708 -488 636z m201 -65 c295 -88 374 -473 136 -668 -78 -64 -129 -81
-242 -81 -89 0 -107 3 -161 28 -239 111 -301 419 -123 612 101 110 248 151
390 109z"/>
<path d="M1473 763 c-9 -3 -13 -32 -13 -93 l0 -89 -92 -3 -93 -3 0 -30 0 -30
93 -3 92 -3 0 -90 c0 -74 3 -91 16 -96 37 -14 49 10 52 101 l3 86 84 0 c71 0
86 3 94 18 6 11 6 24 0 35 -8 14 -25 17 -94 17 l-85 0 0 83 c0 97 -12 119 -57
100z"/>
</g>
</svg>
