<?xml version="1.0" standalone="no"?>
<!DOCTYPE svg PUBLIC "-//W3C//DTD SVG 20010904//EN"
 "http://www.w3.org/TR/2001/REC-SVG-20010904/DTD/svg10.dtd">
<svg version="1.0" xmlns="http://www.w3.org/2000/svg"
 width="220.000000pt" height="200.000000pt" viewBox="0 0 220.000000 200.000000"
 preserveAspectRatio="xMidYMid meet">
<metadata>
Created by potrace 1.15, written by Peter Selinger 2001-2017
</metadata>
<g transform="translate(0.000000,200.000000) scale(0.100000,-0.100000)"
fill="#000000" stroke="none">
<path d="M752 1828 c-8 -8 -12 -53 -12 -146 0 -119 -2 -137 -20 -159 -44 -57
-12 -123 59 -123 30 0 44 6 55 22 22 31 20 81 -4 103 -17 16 -20 33 -22 164
-3 138 -4 146 -23 149 -11 1 -26 -3 -33 -10z"/>
<path d="M1397 1833 c-4 -3 -7 -68 -7 -143 0 -125 -2 -138 -20 -155 -31 -28
-24 -91 12 -118 66 -49 149 37 99 103 -19 26 -21 42 -21 163 0 90 -4 137 -12
145 -13 13 -41 16 -51 5z"/>
<path d="M460 1648 c-18 -13 -41 -39 -52 -58 -17 -33 -18 -67 -16 -682 3 -635
3 -647 24 -674 11 -15 33 -37 48 -48 27 -21 37 -21 636 -21 599 0 609 0 636
21 15 11 37 33 48 48 21 27 21 39 24 667 2 617 2 642 -17 684 -30 69 -67 86
-176 83 -86 -3 -90 -4 -93 -27 -5 -32 12 -41 86 -41 119 0 132 -24 132 -240
l0 -150 -641 0 -640 0 3 171 3 171 28 24 c24 20 39 24 100 24 83 0 100 8 95
41 -3 23 -6 24 -99 27 -85 2 -98 0 -129 -20z m1278 -923 l-3 -435 -28 -27 -27
-28 -580 0 -580 0 -27 28 -28 27 -3 435 -3 435 641 0 641 0 -3 -435z"/>
<path d="M647 893 c-15 -15 -6 -43 16 -48 12 -3 216 -4 452 -3 l430 3 0 25 0
25 -446 3 c-245 1 -449 -1 -452 -5z"/>
<path d="M644 555 c-3 -8 -3 -19 1 -25 4 -7 153 -10 456 -10 l449 0 0 25 0 25
-450 0 c-385 0 -451 -2 -456 -15z"/>
<path d="M863 1654 c-3 -9 -2 -24 4 -33 9 -14 38 -16 228 -16 190 0 219 2 228
16 6 9 7 24 4 33 -6 14 -32 16 -232 16 -200 0 -226 -2 -232 -16z"/>
</g>
</svg>
