<?xml version="1.0" standalone="no"?>
<!DOCTYPE svg PUBLIC "-//W3C//DTD SVG 20010904//EN"
 "http://www.w3.org/TR/2001/REC-SVG-20010904/DTD/svg10.dtd">
<svg version="1.0" xmlns="http://www.w3.org/2000/svg"
 width="220.000000pt" height="200.000000pt" viewBox="0 0 220.000000 200.000000"
 preserveAspectRatio="xMidYMid meet">
<metadata>
Created by potrace 1.15, written by Peter Selinger 2001-2017
</metadata>
<g transform="translate(0.000000,200.000000) scale(0.100000,-0.100000)"
fill="#000000" stroke="none">
<path d="M289 1648 c-12 -24 -79 -156 -150 -294 l-129 -250 135 -77 c74 -42
139 -77 144 -77 13 0 304 568 297 579 -3 5 -52 35 -108 67 -57 32 -117 66
-135 77 l-32 18 -22 -43z m127 -104 c35 -20 66 -40 69 -45 5 -6 -201 -423
-221 -448 -1 -1 -36 16 -78 40 l-75 42 21 41 c80 159 210 406 215 406 2 0 34
-16 69 -36z"/>
<path d="M1765 1605 c-77 -41 -140 -78 -140 -82 0 -21 271 -583 281 -583 6 0
72 32 147 71 l135 72 -28 61 c-33 72 -251 530 -253 533 -2 1 -65 -31 -142 -72z
m215 -257 c58 -121 106 -224 108 -227 3 -8 -148 -84 -154 -78 -8 8 -215 449
-212 452 16 12 135 75 143 75 6 0 57 -100 115 -222z"/>
<path d="M855 1524 c-22 -8 -63 -33 -90 -55 -44 -37 -53 -40 -85 -34 -19 4
-48 8 -65 9 -26 1 -30 -3 -33 -27 -3 -23 2 -30 32 -42 19 -8 57 -15 84 -15 43
0 57 6 116 49 37 27 80 52 96 56 33 7 48 38 30 60 -15 18 -33 18 -85 -1z"/>
<path d="M855 1388 c-93 -82 -171 -153 -173 -157 -1 -4 8 -23 21 -41 59 -89
146 -104 255 -44 36 19 71 33 78 30 20 -8 564 -345 602 -373 39 -29 54 -61 40
-85 -15 -30 -47 -21 -150 43 -54 33 -106 59 -116 57 -11 -2 -18 -14 -20 -33
-3 -27 3 -33 54 -64 65 -39 94 -65 94 -85 0 -15 -26 -46 -39 -46 -4 0 -45 23
-91 50 -90 54 -114 60 -129 32 -13 -24 2 -47 48 -73 42 -23 56 -51 40 -81 -14
-27 -40 -22 -108 18 -68 41 -95 41 -99 2 -2 -20 4 -31 22 -44 51 -33 24 -110
-30 -85 -36 16 -64 5 -64 -24 0 -33 36 -55 91 -55 40 0 51 4 73 31 14 17 26
39 26 50 0 16 7 19 54 19 42 0 58 5 79 24 14 13 29 35 32 48 5 21 11 23 50 20
40 -4 49 0 80 31 19 19 35 44 35 56 0 18 6 21 44 21 28 0 52 7 69 20 51 40 45
140 -10 192 -24 22 -648 413 -678 424 -6 3 -47 -16 -91 -41 -87 -49 -111 -54
-144 -27 l-23 18 124 109 c68 60 133 116 144 126 18 16 29 16 110 7 71 -8 105
-19 165 -49 89 -45 159 -63 217 -54 47 7 66 24 61 57 -3 22 -7 23 -68 20 -70
-4 -134 15 -208 62 -29 18 -63 26 -140 35 -57 6 -115 11 -130 10 -20 0 -70
-38 -197 -151z"/>
<path d="M357 983 c-16 -15 -6 -53 19 -70 14 -9 30 -27 35 -40 6 -15 17 -23
33 -23 l25 0 -36 -60 c-31 -53 -35 -66 -30 -107 7 -60 41 -93 97 -93 29 0 40
-5 44 -18 11 -33 53 -63 95 -69 33 -5 45 -12 57 -34 17 -34 61 -59 103 -59 23
0 40 -10 64 -37 29 -31 41 -37 88 -41 44 -3 59 0 81 17 33 27 98 153 98 193 0
50 -26 96 -65 115 -27 13 -38 26 -45 54 -14 51 -61 89 -109 89 -35 0 -39 3
-50 39 -17 59 -54 84 -114 78 -42 -4 -52 -1 -72 19 -18 18 -35 24 -69 24 -60
0 -73 -6 -101 -49 -21 -30 -25 -32 -25 -14 0 47 -96 114 -123 86z m273 -113
c6 -12 8 -30 5 -41 -8 -24 10 -49 35 -49 10 0 30 16 44 35 15 19 33 35 40 35
25 0 41 -33 41 -83 0 -63 20 -80 64 -54 16 9 36 17 43 17 27 0 47 -34 50 -85
3 -48 4 -50 33 -52 17 0 36 -2 43 -2 7 -1 17 -12 23 -25 9 -19 6 -32 -14 -72
-38 -75 -59 -98 -85 -90 -32 10 -52 34 -52 61 0 29 -24 38 -69 25 -42 -12 -68
1 -77 38 -11 44 -23 53 -60 46 -42 -8 -84 17 -84 49 0 39 -13 47 -69 44 -84
-3 -86 12 -17 127 59 100 84 117 106 76z"/>
</g>
</svg>
