<?xml version="1.0" standalone="no"?>
<!DOCTYPE svg PUBLIC "-//W3C//DTD SVG 20010904//EN"
 "http://www.w3.org/TR/2001/REC-SVG-20010904/DTD/svg10.dtd">
<svg version="1.0" xmlns="http://www.w3.org/2000/svg"
 width="220.000000pt" height="200.000000pt" viewBox="0 0 220.000000 200.000000"
 preserveAspectRatio="xMidYMid meet">
<metadata>
Created by potrace 1.15, written by Peter Selinger 2001-2017
</metadata>
<g transform="translate(0.000000,200.000000) scale(0.100000,-0.100000)"
fill="#000000" stroke="none">
<path d="M525 1845 c-51 -18 -120 -91 -134 -141 -14 -51 -15 -1304 -1 -1353
16 -58 59 -109 113 -136 51 -25 53 -25 313 -25 256 0 263 1 269 20 15 47 -1
50 -259 50 -276 0 -304 6 -347 76 l-24 39 0 650 0 650 23 37 c13 21 40 45 66
57 41 20 57 21 532 21 455 0 492 -2 530 -19 23 -10 52 -34 65 -52 l24 -34 3
-392 c3 -418 4 -423 52 -408 21 7 21 9 18 420 l-3 413 -30 43 c-19 27 -50 54
-84 71 l-53 28 -517 0 c-419 -1 -524 -4 -556 -15z"/>
<path d="M677 1533 c-13 -12 -7 -51 9 -57 9 -3 188 -6 399 -6 369 0 385 1 395
19 5 11 7 27 4 35 -5 14 -51 16 -403 16 -219 0 -401 -3 -404 -7z"/>
<path d="M674 1126 c-3 -8 -4 -23 -2 -33 3 -17 27 -18 405 -21 358 -2 401 -1
407 14 3 8 1 24 -4 35 -10 18 -26 19 -406 19 -334 0 -395 -2 -400 -14z"/>
<path d="M1323 824 c-60 -22 -127 -86 -160 -152 -24 -48 -28 -70 -28 -137 0
-67 4 -89 28 -137 30 -61 74 -105 140 -140 35 -19 58 -23 137 -23 85 0 100 3
144 28 40 22 52 25 61 15 6 -7 36 -41 65 -75 59 -70 95 -83 106 -38 5 21 -4
37 -48 88 -86 100 -83 94 -65 121 30 45 50 136 43 194 -13 112 -69 192 -168
242 -53 26 -72 30 -137 29 -42 0 -95 -7 -118 -15z m212 -78 c123 -57 171 -196
110 -316 -96 -190 -370 -160 -431 47 -54 186 144 352 321 269z"/>
<path d="M674 726 c-3 -8 -4 -23 -2 -33 3 -16 21 -19 173 -26 203 -8 215 -7
215 32 0 17 -6 31 -16 35 -9 3 -94 6 -190 6 -143 0 -176 -3 -180 -14z"/>
</g>
</svg>
