<?xml version="1.0" encoding="utf-8"?>
<!-- Generator: Adobe Illustrator 19.0.0, SVG Export Plug-In . SVG Version: 6.00 Build 0)  -->
<svg version="1.1" id="Layer_1" xmlns="http://www.w3.org/2000/svg" xmlns:xlink="http://www.w3.org/1999/xlink" x="0px" y="0px"
	 viewBox="0 0 145 125" style="enable-background:new 0 0 145 125;" xml:space="preserve">
<g id="XMLID_146_">
	<path id="XMLID_156_" style="fill:none;stroke:#FFFFFF;stroke-width:5;stroke-linecap:round;stroke-miterlimit:10;" d="M95.5,88.25
		v8.25c0,5.937-4.813,10.75-10.75,10.75h-53.5c-5.937,0-10.75-4.813-10.75-10.75v-68c0-5.937,4.813-10.75,10.75-10.75h53.5
		c5.937,0,10.75,4.813,10.75,10.75v8.25"/>
	<g id="XMLID_152_">
		<path id="XMLID_155_" style="fill:none;stroke:#FFFFFF;stroke-width:5;stroke-linecap:round;stroke-miterlimit:10;" d="
			M87.273,84.777l-9.186-6.024l32.274-49.212c1.664-2.537,5.069-3.244,7.605-1.581l0,0c2.537,1.664,3.244,5.069,1.581,7.605
			L87.273,84.777z"/>
		
			<polygon id="XMLID_154_" style="fill:none;stroke:#FFFFFF;stroke-width:4.3035;stroke-linecap:round;stroke-miterlimit:10;" points="
			73.771,94.783 75.487,84.523 82.688,89.246 		"/>
		
			<line id="XMLID_153_" style="fill:none;stroke:#FFFFFF;stroke-width:5;stroke-linecap:round;stroke-miterlimit:10;" x1="103.26" y1="40.368" x2="111.79" y2="45.962"/>
	</g>
	
		<line id="XMLID_151_" style="fill:none;stroke:#FFFFFF;stroke-width:5;stroke-linecap:round;stroke-miterlimit:10;" x1="124.5" y1="38.75" x2="109.667" y2="61.083"/>
	
		<line id="XMLID_150_" style="fill:none;stroke:#FFFFFF;stroke-width:5;stroke-linecap:round;stroke-miterlimit:10;" x1="33.5" y1="43.5" x2="83" y2="43.5"/>
	
		<line id="XMLID_149_" style="fill:none;stroke:#FFFFFF;stroke-width:5;stroke-linecap:round;stroke-miterlimit:10;" x1="33.5" y1="32" x2="83" y2="32"/>
	
		<line id="XMLID_148_" style="fill:none;stroke:#FFFFFF;stroke-width:5;stroke-linecap:round;stroke-miterlimit:10;" x1="33.5" y1="55" x2="83" y2="55"/>
	
		<circle id="XMLID_147_" style="fill:none;stroke:#FFFFFF;stroke-width:5;stroke-linecap:round;stroke-miterlimit:10;" cx="41.5" cy="85.25" r="10"/>
</g>
</svg>
