<?xml version="1.0" encoding="utf-8"?>
<!-- Generator: Adobe Illustrator 19.0.0, SVG Export Plug-In . SVG Version: 6.00 Build 0)  -->
<svg version="1.1" id="Layer_1" xmlns="http://www.w3.org/2000/svg" xmlns:xlink="http://www.w3.org/1999/xlink" x="0px" y="0px"
	 viewBox="0 0 145 125" style="enable-background:new 0 0 145 125;" xml:space="preserve">
<g id="XMLID_27_">
	
		<line id="XMLID_80_" style="fill:none;stroke:#FFFFFF;stroke-width:5;stroke-linecap:round;stroke-miterlimit:10;" x1="55.5" y1="114.987" x2="38" y2="114.987"/>
	<path id="XMLID_79_" style="fill:none;stroke:#FFFFFF;stroke-width:5;stroke-linecap:round;stroke-miterlimit:10;" d="
		M13.375,26.987H89.25c24.301,0,44,19.699,44,44v0c0,24.301-19.699,44-44,44H68"/>
	
		<line id="XMLID_70_" style="fill:none;stroke:#FFFFFF;stroke-width:5;stroke-linecap:round;stroke-miterlimit:10;" x1="13" y1="26.987" x2="13.375" y2="26.987"/>
	
		<circle id="XMLID_75_" style="fill:none;stroke:#FFFFFF;stroke-width:5;stroke-linecap:round;stroke-miterlimit:10;" cx="86.75" cy="70.987" r="29.5"/>
	<g id="XMLID_114_">
		<path id="XMLID_115_" style="fill:#FFFFFF;" d="M84.484,82.711V72.482c-3.663-0.911-6.35-2.291-8.06-4.138
			c-1.71-1.847-2.565-4.089-2.565-6.726c0-2.669,0.967-4.911,2.902-6.726c1.934-1.815,4.509-2.86,7.724-3.137v-2.417h4.065v2.417
			c2.972,0.309,5.336,1.193,7.093,2.649c1.757,1.457,2.878,3.406,3.364,5.847l-7.093,0.806c-0.43-1.92-1.552-3.223-3.364-3.906
			v9.546c4.486,1.058,7.542,2.429,9.168,4.114c1.626,1.685,2.439,3.845,2.439,6.482c0,2.946-1.023,5.428-3.07,7.446
			c-2.047,2.018-4.892,3.255-8.537,3.711v4.565h-4.065V88.57c-3.234-0.342-5.859-1.392-7.878-3.149s-3.308-4.24-3.869-7.446
			l7.317-0.684c0.299,1.302,0.859,2.425,1.682,3.369C82.558,81.604,83.474,82.288,84.484,82.711z M84.484,57.076
			c-1.103,0.326-1.981,0.879-2.635,1.66c-0.654,0.781-0.981,1.644-0.981,2.588c0,0.863,0.299,1.664,0.897,2.405
			c0.598,0.741,1.504,1.339,2.719,1.794V57.076z M88.549,83.053c1.402-0.228,2.542-0.793,3.42-1.697
			c0.878-0.903,1.318-1.965,1.318-3.186c0-1.09-0.369-2.03-1.107-2.82c-0.739-0.789-1.948-1.396-3.63-1.819V83.053z"/>
	</g>
	<polyline id="XMLID_77_" style="fill:none;stroke:#FFFFFF;stroke-width:5;stroke-linecap:round;stroke-miterlimit:10;" points="
		22.527,10.013 11.75,26.987 23.777,43.136 	"/>
</g>
</svg>
