<?xml version="1.0" encoding="utf-8"?>
<!-- Generator: Adobe Illustrator 19.0.0, SVG Export Plug-In . SVG Version: 6.00 Build 0)  -->
<svg version="1.1" id="Layer_1" xmlns="http://www.w3.org/2000/svg" xmlns:xlink="http://www.w3.org/1999/xlink" x="0px" y="0px"
	 viewBox="0 0 145 125" style="enable-background:new 0 0 145 125;" xml:space="preserve">
<g id="XMLID_71_">
	<path id="XMLID_96_" style="fill:none;stroke:#FFFFFF;stroke-width:5;stroke-linecap:round;stroke-miterlimit:10;" d="
		M78.079,58.711c-4.51,4.698-10.838,7.396-17.351,7.396c-7.224,0-14.18-3.329-18.719-8.948c-4.782-5.92-5.1-13.501-6.143-20.694
		c-0.371-2.562-0.743-5.123-1.114-7.685l32.825,0"/>
	
		<line id="XMLID_81_" style="fill:none;stroke:#FFFFFF;stroke-width:5;stroke-linecap:round;stroke-miterlimit:10;" x1="24.797" y1="21.007" x2="70.453" y2="21.007"/>
	<path id="XMLID_93_" style="fill:none;stroke:#FFFFFF;stroke-width:5;stroke-linecap:round;stroke-miterlimit:10;" d="
		M60.728,66.652c7.224,0,14.18,3.329,18.719,8.948c4.782,5.92,5.1,13.501,6.143,20.694c0.371,2.562,0.743,5.123,1.114,7.685
		c0,0-51.95,0-51.95,0c0.319-2.203,0.639-4.407,0.958-6.61c0.491-3.386,0.585-6.839,1.23-10.22
		c0.938-4.915,2.944-9.465,6.436-13.102C47.887,69.351,54.215,66.652,60.728,66.652z"/>
	
		<line id="XMLID_91_" style="fill:none;stroke:#FFFFFF;stroke-width:5;stroke-linecap:round;stroke-miterlimit:10;" x1="96.658" y1="111.752" x2="24.797" y2="111.752"/>
	
		<line id="XMLID_94_" style="fill:none;stroke:#FFFFFF;stroke-width:5;stroke-linecap:round;stroke-miterlimit:10;" x1="38.229" y1="86.254" x2="83.601" y2="86.254"/>
	
		<circle id="XMLID_78_" style="fill:none;stroke:#FFFFFF;stroke-width:5;stroke-linecap:round;stroke-miterlimit:10;" cx="97.828" cy="35.623" r="22.375"/>
	<g id="XMLID_74_">
		<path id="XMLID_98_" style="fill:#FFFFFF;" d="M96.108,44.515v-7.759c-2.779-0.691-4.816-1.737-6.114-3.139
			c-1.297-1.401-1.946-3.102-1.946-5.102c0-2.025,0.734-3.725,2.201-5.102c1.467-1.376,3.42-2.17,5.858-2.38v-1.833h3.083v1.833
			c2.254,0.235,4.047,0.905,5.38,2.009c1.332,1.105,2.183,2.583,2.552,4.435l-5.38,0.611c-0.326-1.457-1.177-2.444-2.552-2.963v7.24
			c3.402,0.803,5.72,1.843,6.953,3.12c1.233,1.278,1.85,2.917,1.85,4.917c0,2.234-0.776,4.117-2.328,5.648
			c-1.552,1.531-3.711,2.469-6.475,2.815v3.463h-3.083v-3.37c-2.453-0.259-4.444-1.056-5.975-2.389
			c-1.531-1.333-2.509-3.216-2.934-5.648l5.55-0.518c0.227,0.988,0.652,1.84,1.276,2.555C94.648,43.676,95.343,44.194,96.108,44.515
			z M96.108,25.072c-0.837,0.247-1.503,0.667-1.999,1.259c-0.496,0.593-0.744,1.247-0.744,1.963c0,0.654,0.227,1.262,0.68,1.824
			c0.453,0.562,1.141,1.016,2.063,1.361V25.072z M99.192,44.774c1.063-0.173,1.928-0.602,2.594-1.287c0.666-0.685,1-1.491,1-2.417
			c0-0.827-0.28-1.54-0.84-2.139c-0.56-0.599-1.478-1.058-2.754-1.38V44.774z"/>
	</g>
</g>
</svg>
