<?xml version="1.0" encoding="utf-8"?>
<!-- Generator: Adobe Illustrator 19.0.0, SVG Export Plug-In . SVG Version: 6.00 Build 0)  -->
<svg version="1.1" id="Layer_1" xmlns="http://www.w3.org/2000/svg" xmlns:xlink="http://www.w3.org/1999/xlink" x="0px" y="0px"
	 viewBox="0 0 145 125" style="enable-background:new 0 0 145 125;" xml:space="preserve">
<g id="XMLID_119_">
	<path id="XMLID_133_" style="fill:none;stroke:#FFFFFF;stroke-width:5;stroke-linecap:round;stroke-miterlimit:10;" d="
		M116.385,85.943c0-24.237-19.648-43.885-43.885-43.885S28.615,61.706,28.615,85.943H116.385z"/>
	<path id="XMLID_132_" style="fill:none;stroke:#FFFFFF;stroke-width:5;stroke-linecap:round;stroke-miterlimit:10;" d="
		M112.205,113.109h-79.41c-4.501,0-8.15-3.649-8.15-8.15v0c0-4.501,3.649-8.15,8.15-8.15h79.41c4.501,0,8.15,3.649,8.15,8.15v0
		C120.355,109.461,116.706,113.109,112.205,113.109z"/>
	
		<line id="XMLID_131_" style="fill:none;stroke:#FFFFFF;stroke-width:6.2692;stroke-linecap:round;stroke-miterlimit:10;" x1="72.5" y1="32.863" x2="72.5" y2="41.222"/>
	<g id="XMLID_124_">
		
			<line id="XMLID_130_" style="fill:none;stroke:#FFFFFF;stroke-width:6.2692;stroke-linecap:round;stroke-miterlimit:10;" x1="119.266" y1="29.22" x2="113.893" y2="35.623"/>
		
			<line id="XMLID_129_" style="fill:none;stroke:#FFFFFF;stroke-width:6.2692;stroke-linecap:round;stroke-miterlimit:10;" x1="97.159" y1="16.446" x2="94.3" y2="24.301"/>
		
			<line id="XMLID_127_" style="fill:none;stroke:#FFFFFF;stroke-width:6.2692;stroke-linecap:round;stroke-miterlimit:10;" x1="72.081" y1="11.891" x2="72.081" y2="20.25"/>
		
			<line id="XMLID_126_" style="fill:none;stroke:#FFFFFF;stroke-width:6.2692;stroke-linecap:round;stroke-miterlimit:10;" x1="46.94" y1="16.478" x2="49.799" y2="24.333"/>
		
			<line id="XMLID_125_" style="fill:none;stroke:#FFFFFF;stroke-width:6.2692;stroke-linecap:round;stroke-miterlimit:10;" x1="24.884" y1="29.387" x2="30.257" y2="35.791"/>
	</g>
	
		<line id="XMLID_123_" style="fill:none;stroke:#FFFFFF;stroke-width:5;stroke-linecap:round;stroke-miterlimit:10;" x1="63.932" y1="31.609" x2="81.068" y2="31.609"/>
	
		<rect id="XMLID_122_" x="65.395" y="85.943" style="fill:none;stroke:#FFFFFF;stroke-width:4.1795;stroke-linecap:round;stroke-miterlimit:10;" width="14.21" height="10.449"/>
	
		<line id="XMLID_121_" style="fill:none;stroke:#FFFFFF;stroke-width:6.2692;stroke-linecap:round;stroke-miterlimit:10;" x1="84.1" y1="71.882" x2="96.724" y2="71.882"/>
	
		<line id="XMLID_120_" style="fill:none;stroke:#FFFFFF;stroke-width:6.2692;stroke-linecap:round;stroke-miterlimit:10;" x1="31.227" y1="71.882" x2="69.1" y2="71.882"/>
</g>
</svg>
