<?xml version="1.0" standalone="no"?>
<!DOCTYPE svg PUBLIC "-//W3C//DTD SVG 20010904//EN"
 "http://www.w3.org/TR/2001/REC-SVG-20010904/DTD/svg10.dtd">
<svg version="1.0" xmlns="http://www.w3.org/2000/svg"
 width="220.000000pt" height="200.000000pt" viewBox="0 0 220.000000 200.000000"
 preserveAspectRatio="xMidYMid meet">
<metadata>
Created by potrace 1.15, written by Peter Selinger 2001-2017
</metadata>
<g transform="translate(0.000000,200.000000) scale(0.100000,-0.100000)"
fill="#000000" stroke="none">
<path d="M950 1942 c-49 -24 -60 -53 -60 -159 l0 -91 -82 -59 c-46 -32 -84
-66 -85 -73 -8 -41 0 -43 365 -48 192 -3 361 -2 376 2 19 5 26 13 26 30 0 19
-18 37 -80 80 l-80 56 0 100 c0 165 -18 180 -217 180 -102 0 -135 -4 -163 -18z
m310 -190 l5 -122 30 -20 30 -20 -220 0 -220 1 30 24 c17 14 33 25 38 25 4 0
7 45 7 101 0 146 -7 140 158 137 l137 -3 5 -123z"/>
<path d="M483 1749 c-47 -14 -99 -68 -112 -116 -8 -30 -11 -250 -9 -755 3
-802 -2 -751 80 -806 l42 -27 616 0 616 0 42 27 c82 55 77 0 77 828 0 828 5
773 -77 828 -38 25 -51 27 -160 31 -149 4 -168 0 -168 -38 0 -17 6 -31 16 -35
9 -3 70 -6 136 -6 119 0 120 0 149 -29 l29 -29 0 -722 0 -722 -29 -29 -29 -29
-602 0 -602 0 -29 29 -29 29 0 722 0 722 29 29 29 29 135 0 c75 0 142 3 151 6
21 8 21 60 0 68 -24 9 -265 5 -301 -5z"/>
<path d="M655 1362 c-64 -23 -75 -47 -75 -176 0 -168 13 -181 187 -181 l115 0
29 33 c28 32 29 34 29 147 0 112 -1 115 -29 147 -29 32 -29 32 -132 35 -57 1
-113 -1 -124 -5z m209 -88 c9 -23 7 -167 -2 -182 -6 -9 -35 -12 -108 -10 l-99
3 -3 89 c-2 49 -1 95 2 103 4 10 31 13 105 13 81 0 100 -3 105 -16z"/>
<path d="M1063 1224 c-3 -9 -2 -24 4 -33 9 -14 43 -16 260 -19 268 -3 283 0
268 48 -6 19 -13 20 -266 20 -231 0 -260 -2 -266 -16z"/>
<path d="M609 771 c-29 -29 -29 -30 -29 -150 0 -112 2 -122 24 -148 l24 -28
131 0 c176 0 175 -1 179 170 l4 125 -30 30 -30 30 -122 0 c-121 0 -122 0 -151
-29z m249 -53 c16 -16 16 -180 0 -196 -16 -16 -180 -16 -196 0 -16 16 -16 180
0 196 7 7 44 12 98 12 54 0 91 -5 98 -12z"/>
<path d="M1063 744 c-3 -9 -2 -24 4 -33 9 -14 43 -16 266 -19 251 -2 256 -2
262 18 15 47 0 50 -272 50 -226 0 -254 -2 -260 -16z"/>
<path d="M1067 553 c-12 -11 -8 -53 6 -57 6 -3 121 -7 254 -10 211 -5 244 -4
257 10 20 19 20 29 0 48 -13 14 -51 16 -263 16 -136 0 -251 -3 -254 -7z"/>
</g>
</svg>
