<?xml version="1.0" encoding="utf-8"?>
<!-- Generator: Adobe Illustrator 19.0.0, SVG Export Plug-In . SVG Version: 6.00 Build 0)  -->
<svg version="1.1" id="Layer_1" xmlns="http://www.w3.org/2000/svg" xmlns:xlink="http://www.w3.org/1999/xlink" x="0px" y="0px"
	 viewBox="0 0 145 125" style="enable-background:new 0 0 145 125;" xml:space="preserve">
<g id="XMLID_32_">
	<path id="XMLID_65_" style="fill:none;stroke:#FFFFFF;stroke-width:5;stroke-linecap:round;stroke-miterlimit:10;" d="
		M100.949,22.595h6.055c4.125,0,7.5,3.375,7.5,7.5v75.009c0,4.125-3.375,7.5-7.5,7.5H37.996c-4.125,0-7.5-3.375-7.5-7.5V30.095
		c0-4.125,3.375-7.5,7.5-7.5h6.831"/>
	
		<line id="XMLID_64_" style="fill:none;stroke:#FFFFFF;stroke-width:5;stroke-linecap:round;stroke-miterlimit:10;" x1="60.063" y1="22.595" x2="84.937" y2="22.595"/>
	<g id="XMLID_30_">
		<g id="XMLID_48_">
			
				<line id="XMLID_62_" style="fill:none;stroke:#FFFFFF;stroke-width:5;stroke-linecap:round;stroke-miterlimit:10;" x1="52.375" y1="12.396" x2="52.375" y2="33.396"/>
		</g>
		<g id="XMLID_31_">
			
				<line id="XMLID_47_" style="fill:none;stroke:#FFFFFF;stroke-width:5;stroke-linecap:round;stroke-miterlimit:10;" x1="92.625" y1="12.396" x2="92.625" y2="33.396"/>
		</g>
	</g>
	
		<circle id="XMLID_29_" style="fill:none;stroke:#FFFFFF;stroke-width:5;stroke-linecap:round;stroke-miterlimit:10;" cx="72.5" cy="33.047" r="3"/>
	
		<circle id="XMLID_28_" style="fill:none;stroke:#FFFFFF;stroke-width:5;stroke-linecap:round;stroke-miterlimit:10;" cx="72.5" cy="32.547" r="3"/>
	
		<line id="XMLID_27_" style="fill:none;stroke:#FFFFFF;stroke-width:5;stroke-linecap:round;stroke-miterlimit:10;" x1="30.75" y1="46.646" x2="114.25" y2="46.646"/>
	<polyline id="XMLID_72_" style="fill:none;stroke:#FFFFFF;stroke-width:5;stroke-linecap:round;stroke-miterlimit:10;" points="
		52.612,69.021 52.612,60.501 92.388,60.501 92.388,99.815 52.612,99.815 52.612,91.146 	"/>
	<polygon id="XMLID_68_" style="fill:#FFFFFF;" points="49.974,75.875 75.062,75.875 75.062,68.682 95.062,80.963 75.5,92.805 
		75.5,85.876 49.938,85.876 	"/>
</g>
</svg>
