<?xml version="1.0" standalone="no"?>
<!DOCTYPE svg PUBLIC "-//W3C//DTD SVG 20010904//EN"
 "http://www.w3.org/TR/2001/REC-SVG-20010904/DTD/svg10.dtd">
<svg version="1.0" xmlns="http://www.w3.org/2000/svg"
 width="220.000000pt" height="200.000000pt" viewBox="0 0 220.000000 200.000000"
 preserveAspectRatio="xMidYMid meet">
<metadata>
Created by potrace 1.15, written by Peter Selinger 2001-2017
</metadata>
<g transform="translate(0.000000,200.000000) scale(0.100000,-0.100000)"
fill="#000000" stroke="none">
<path d="M374 1745 c-37 -25 -46 -66 -42 -180 l3 -107 34 -30 33 -30 120 4
c117 3 120 4 144 31 23 26 24 36 24 151 0 120 -1 124 -26 150 -26 25 -30 26
-148 26 -90 0 -127 -4 -142 -15z m244 -155 c3 -115 0 -120 -104 -120 -107 0
-104 -4 -104 109 0 54 3 101 7 105 4 4 50 5 103 4 l95 -3 3 -95z"/>
<path d="M986 1734 c-25 -26 -26 -30 -26 -150 0 -115 1 -125 24 -151 24 -27
27 -28 145 -31 l121 -4 36 36 36 36 -4 121 c-3 118 -4 121 -31 145 -26 23 -36
24 -151 24 -120 0 -124 -1 -150 -26z m254 -63 c5 -11 10 -53 10 -95 0 -98 -8
-106 -106 -106 -112 0 -114 2 -114 114 0 51 3 96 7 99 3 4 48 7 99 7 82 0 95
-2 104 -19z"/>
<path d="M1609 1731 c-29 -29 -29 -31 -29 -140 0 -173 17 -191 180 -191 107 0
150 13 170 49 5 11 10 72 10 136 0 115 0 117 -29 146 -29 29 -30 29 -151 29
-121 0 -122 0 -151 -29z m249 -53 c8 -8 12 -45 12 -100 0 -105 -3 -108 -114
-108 -99 0 -106 7 -106 114 0 50 5 87 12 94 7 7 44 12 98 12 54 0 91 -5 98
-12z"/>
<path d="M796 924 l-199 -115 -204 -34 c-258 -44 -280 -55 -303 -147 -7 -26
-18 -49 -26 -52 -10 -4 -14 -27 -14 -90 0 -125 9 -133 158 -128 62 2 62 2 62
32 0 36 24 96 48 123 29 32 89 57 138 57 92 0 167 -69 180 -164 l7 -46 463 0
464 0 0 43 c0 92 84 171 180 171 97 0 180 -79 180 -172 l0 -45 73 6 c69 6 74
8 110 48 36 41 37 43 37 125 0 73 -2 85 -20 94 -17 9 -20 21 -20 86 l0 76
-112 124 -113 123 -445 0 -445 0 -199 -115z m1153 -54 l101 -110 0 -78 c0 -67
3 -79 20 -90 18 -11 20 -19 14 -65 -7 -58 -35 -97 -69 -97 -16 0 -23 10 -33
44 -35 133 -205 205 -337 142 -65 -31 -104 -73 -126 -138 l-18 -53 -398 -3
-398 -2 -19 52 c-49 139 -214 205 -346 138 -53 -27 -108 -93 -122 -145 l-12
-45 -48 0 -48 0 0 54 c0 35 5 56 13 59 7 3 19 30 26 61 10 46 18 59 41 71 16
8 120 31 231 49 l201 35 193 110 c146 83 203 111 236 114 24 2 213 4 420 5
l376 2 102 -110z"/>
<path d="M1744 915 c-4 -9 9 -34 31 -60 l36 -45 -43 0 c-188 -1 -964 -32 -971
-39 -5 -5 -7 -17 -4 -25 5 -13 25 -16 104 -16 153 0 1016 29 1021 34 2 3 -26
41 -63 86 -66 79 -99 98 -111 65z"/>
<path d="M406 530 c-65 -21 -100 -79 -94 -157 16 -185 288 -169 288 17 0 50
-20 92 -58 119 -34 24 -96 34 -136 21z m102 -80 c68 -64 0 -171 -85 -135 -57
24 -71 88 -28 130 30 31 82 33 113 5z"/>
<path d="M1683 524 c-96 -48 -98 -210 -4 -259 72 -37 173 -8 205 59 62 131
-71 264 -201 200z m129 -72 c10 -9 20 -31 24 -49 5 -27 1 -37 -24 -63 -39 -39
-74 -39 -113 -1 -33 33 -37 65 -13 99 30 44 89 50 126 14z"/>
</g>
</svg>
